<svg xmlns="http://www.w3.org/2000/svg" xmlns:xlink="http://www.w3.org/1999/xlink" width="780" height="131" version="1.1" viewBox="0 0 780 131"><title>Banner Terminal</title><g id="Middleman-v4---Landingv2" fill="none" fill-rule="evenodd" stroke="none" stroke-width="1"><g id="Draft-v2" transform="translate(-209.000000, -499.000000)"><g id="Section---Hero" transform="translate(-1.000000, 0.000000)"><g id="Banner-Terminal" transform="translate(210.000000, 500.000000)"><path id="background" fill="#E3E0E0" d="M4.90463929,-0.115942029 C2.1958818,-0.115942029 0,2.07074496 0,4.7814198 L0,34.8405797 L780,34.8405797 L780,4.7814198 C780,2.07668155 777.79691,-0.115942029 775.095361,-0.115942029 L4.90463929,-0.115942029 Z"/><g id="colorful-objects" transform="translate(13.000000, 10.000000)"><ellipse id="object-2" cx="6.605" cy="6.933" fill="#D16868" rx="6.965" ry="6.845"/><path id="object-2" fill="#D4C637" d="M27.9625822,13.7784454 C31.8090066,13.7784454 34.9271496,10.7137962 34.9271496,6.93335974 C34.9271496,3.1529233 31.8090066,0.0882740448 27.9625822,0.0882740448 C24.1161578,0.0882740448 20.9980148,3.1529233 20.9980148,6.93335974 C20.9980148,10.7137962 24.1161578,13.7784454 27.9625822,13.7784454 Z"/><ellipse id="object-2" cx="49.321" cy="6.933" fill="#5AB541" rx="6.965" ry="6.845"/></g><rect id="Rectangle-11" width="780" height="95.159" x="0" y="34.841" fill="#494E56"/></g></g></g></g></svg>